<?xml version="1.0" encoding="UTF-8" standalone="no"?>
<!DOCTYPE svg PUBLIC "-//W3C//DTD SVG 1.1//EN" "http://www.w3.org/Graphics/SVG/1.1/DTD/svg11.dtd">
<svg width="100%" height="100%" viewBox="0 0 150 150" version="1.1" xmlns="http://www.w3.org/2000/svg" xmlns:xlink="http://www.w3.org/1999/xlink" xml:space="preserve" xmlns:serif="http://www.serif.com/" style="fill-rule:evenodd;clip-rule:evenodd;stroke-linejoin:round;stroke-miterlimit:2;">
    <g transform="matrix(1,0,0,1,-6.87445,108.652)">
        <g transform="matrix(181,0,0,181,24.7562,31.4174)">
            <path d="M0.387,-0.697L0.387,-0L0.265,-0L0.265,-0.697L0.387,-0.697ZM0.635,-0.701L0.635,-0.663L0.016,-0.663L0.016,-0.701L0.635,-0.701ZM0.635,-0.666L0.635,-0.561L0.625,-0.562L0.625,-0.575C0.625,-0.601 0.617,-0.622 0.601,-0.638C0.585,-0.654 0.564,-0.662 0.538,-0.663L0.538,-0.666L0.635,-0.666ZM0.635,-0.719L0.635,-0.69L0.513,-0.701C0.528,-0.701 0.544,-0.702 0.56,-0.704C0.576,-0.706 0.591,-0.708 0.605,-0.711C0.619,-0.714 0.629,-0.716 0.635,-0.719ZM0.268,-0.073L0.268,-0L0.188,-0L0.188,-0.01L0.201,-0.01C0.218,-0.01 0.233,-0.016 0.245,-0.029C0.258,-0.041 0.264,-0.056 0.265,-0.073L0.268,-0.073ZM0.384,-0.073L0.387,-0.073C0.387,-0.056 0.394,-0.041 0.406,-0.029C0.418,-0.016 0.433,-0.01 0.451,-0.01L0.464,-0.01L0.464,-0L0.384,-0L0.384,-0.073ZM0.113,-0.666L0.113,-0.663C0.087,-0.662 0.066,-0.654 0.05,-0.638C0.034,-0.622 0.026,-0.601 0.026,-0.575L0.026,-0.562L0.016,-0.561L0.016,-0.666L0.113,-0.666ZM0.016,-0.719C0.023,-0.716 0.033,-0.714 0.046,-0.711C0.06,-0.708 0.075,-0.706 0.092,-0.704C0.109,-0.702 0.124,-0.701 0.138,-0.701L0.016,-0.69L0.016,-0.719Z" style="fill:white;fill-rule:nonzero;"/>
        </g>
        <g transform="matrix(181,0,0,181,142.476,31.4174)">
        </g>
    </g>
</svg>
