<?xml version="1.0" encoding="UTF-8" standalone="no"?><!DOCTYPE svg PUBLIC "-//W3C//DTD SVG 1.1//EN" "http://www.w3.org/Graphics/SVG/1.1/DTD/svg11.dtd"><svg width="100%" height="100%" viewBox="0 0 684 859" version="1.1" xmlns="http://www.w3.org/2000/svg" xmlns:xlink="http://www.w3.org/1999/xlink" xml:space="preserve" xmlns:serif="http://www.serif.com/" style="fill-rule:evenodd;clip-rule:evenodd;stroke-linejoin:round;stroke-miterlimit:2;"><rect id="Artboard1" x="0" y="0" width="683.333" height="858.333" style="fill:none;"/><clipPath id="_clip1"><rect x="0" y="0" width="683.333" height="858.333"/></clipPath><g clip-path="url(#_clip1)"><path d="M344.792,216.54l55.947,35.03c-1.519,3.197 -2.636,6.162 -3.22,8.776c-3.617,16.193 5.707,31.171 21.169,35.224c-0.243,0.319 -0.44,0.679 -0.576,1.07l-16.078,46.159c-7.208,0.652 -14.915,1.681 -23.145,3.159l5.331,-13.546l-20.497,16.657c-7.399,1.701 -15.173,3.745 -23.336,6.174c-0.25,0.075 -0.494,0.174 -0.728,0.297c0,0 -24.433,12.879 -57.949,20.098l6.487,-17.222l-16.88,19.212c-17.698,2.962 -37.304,4.02 -56.862,0.814l29.175,-33.561c0.687,-0.79 0.995,-1.752 0.936,-2.663c13.397,8.032 32.086,4.808 43.476,-8.113c15.728,-17.84 28.037,-79.082 28.037,-79.082c0,-0 -61.087,22.01 -76.814,39.85c-12.13,13.759 -11.507,33.436 1.224,44.4c-0.846,0.168 -1.66,0.616 -2.275,1.324l-31.581,36.329c-12.12,-2.724 -24.121,-7.214 -35.536,-14.036l11.622,-10.924l-21.251,4.561c-18.312,-12.837 -34.827,-26.169 -49.541,-38.505l19.25,-18.613l-31.279,8.439c-15.824,-13.465 -29.242,-25.038 -40.245,-32.42c-1.917,-1.286 -3.788,-2.491 -5.619,-3.619l37.794,-30.82c11.204,10.302 29.556,10.69 43.084,0.232c18.916,-14.623 43.799,-73.171 43.799,-73.171c0,0 -63.389,9.691 -82.305,24.314c-14.206,10.982 -17.989,29.978 -9.039,43.408l-39.67,32.351c-3.853,-2.101 -7.533,-3.842 -11.094,-5.259l2.482,-28.966l-16.182,24.947c-1.444,-0.268 -2.879,-0.485 -4.309,-0.652c-6.493,-0.762 -12.9,-0.509 -19.643,0.51l-0,-258.703l132.257,82.81c-7.736,1.295 -14.886,4.34 -21.138,8.054c-6.576,3.905 -12.137,8.535 -16.311,12.506l-16.167,-5.462c-0.053,-0.018 -0.106,-0.033 -0.16,-0.047c0.455,-5.53 -2.781,-10.501 -8.008,-11.702c-7.656,-1.76 -28.884,5.87 -28.884,5.87c-0,0 14.498,15.842 22.154,17.602c5.424,1.246 11.153,-1.988 13.592,-7.38l13.894,4.694c-2.434,2.554 -4.02,4.488 -4.603,5.218c-29.163,25.659 -45.4,19.323 -45.4,19.323c-0.889,-0.386 -1.844,-0.417 -2.708,-0.155c-2.504,-3.806 -7.215,-5.579 -11.976,-4.063c-7.833,2.494 -23.711,19.777 -23.711,19.777c0,-0 20.676,5.642 28.509,3.148c5.047,-1.607 8.594,-6.417 8.981,-11.582c2.866,-0.269 8.412,-1.024 16.445,-3.147c3.656,-0.967 7.558,-2.215 11.886,-4.234l1.465,16.027c0.034,0.375 0.158,0.719 0.348,1.015c-5.172,2.549 -8.278,8.608 -7.079,14.338c1.684,8.046 16.772,23.266 16.772,23.266c0,0 7.23,-22.327 5.546,-30.373c-1.146,-5.474 -5.848,-8.865 -11.084,-8.409c0.003,-0.09 -0,-0.182 -0.009,-0.275l-1.628,-17.803c5.091,-2.829 10.77,-6.785 17.276,-12.521c-0.533,0.638 -0.819,0.997 -0.819,0.997c-0.156,0.203 1.17,-1.307 0.979,-1.138c-0.054,0.048 -0.107,0.094 -0.16,0.141c2.904,-3.468 13.15,-15.171 24.674,-22.015c3.416,-2.03 7.395,-3.626 11.673,-4.703l-4.25,14.416c-0.13,0.441 -0.12,0.889 0.004,1.298c-5.197,-0.027 -10.23,3.742 -11.914,9.313c-2.481,8.209 2.581,30.054 2.581,30.054c0,0 16.643,-16.465 19.124,-24.674c1.791,-5.924 -0.823,-11.841 -5.896,-13.922c0.191,-0.23 0.339,-0.502 0.429,-0.807l4.915,-16.675c3.028,-0.454 6.148,-0.654 9.278,-0.573l42.712,26.743c-3.802,0.5 -7.452,2.972 -9.489,6.868c-3.997,7.645 -3.43,30.523 -3.43,30.523c-0,-0 19.218,-12.798 23.214,-20.442c1.712,-3.275 1.933,-6.884 0.897,-9.941l125.463,78.555c-1.087,1.538 -2.211,3.082 -3.375,4.627c-3.341,4.436 -7.447,8.3 -11.888,11.392l-15.023,-8.75c-0.275,-0.159 -0.569,-0.256 -0.866,-0.292c2.26,-4.995 0.098,-11.092 -5.271,-14.17c-7.44,-4.265 -30.845,-4.81 -30.845,-4.81c-0,0 11.318,19.359 18.758,23.624c5.049,2.894 11.296,2.179 15.056,-1.409c0.19,0.382 0.491,0.715 0.888,0.946l12.987,7.564c-3.849,2.154 -7.838,3.725 -11.715,4.595c-13.078,2.936 -28.562,1.462 -33.055,0.934c0.071,-0.002 0.142,-0.005 0.213,-0.007c0.256,-0.009 -1.745,-0.196 -1.493,-0.155c0,-0 0.455,0.065 1.28,0.162c-8.668,0.297 -15.513,1.319 -21.156,2.758l-11.04,-14.062c-0.058,-0.073 -0.119,-0.142 -0.183,-0.206c4.12,-3.263 5.211,-8.957 2.286,-13.723c-4.3,-7.006 -24.886,-18.276 -24.886,-18.276c0,-0 -0.52,21.425 3.78,28.432c3.062,4.989 9.481,7.261 14.991,5.564c0.065,0.345 0.211,0.681 0.444,0.977l9.938,12.659c-4.532,1.503 -8.226,3.274 -11.548,5.082c-7.299,3.971 -11.85,7.23 -14.117,9.002c-3.828,-3.49 -9.709,-4.551 -14.482,-2.255c-7.408,3.565 -18.566,21.863 -18.566,21.863c0,-0 23.41,1.664 30.817,-1.9c4.503,-2.167 6.71,-6.691 5.918,-11.177c0.808,-0.403 1.481,-1.081 1.862,-1.972c-0,-0 7.455,-15.755 46.275,-17.122c0.925,0.131 3.406,0.448 6.929,0.634l-6.879,12.952c-5.475,-2.245 -11.861,-0.664 -14.948,3.967c-4.358,6.535 -4.023,28.007 -4.023,28.007c-0,0 20.673,-9.027 25.031,-15.563c2.976,-4.462 1.916,-10.298 -2.212,-14.006c0.03,-0.047 0.058,-0.095 0.084,-0.145l8.004,-15.07c5.761,0.021 12.983,-0.431 20.446,-2.106c11.686,-2.623 23.898,-8.237 32.304,-19.397c1.511,-2.006 2.955,-4.011 4.338,-6.001l4.28,2.68l0.47,4.012c0.048,0.407 0.202,0.776 0.431,1.083c-5.368,1.927 -8.362,7.283 -6.801,12.736c2.202,7.696 19.133,23.378 19.133,23.378c0,-0 6.652,-20.236 4.45,-27.932c-0.318,-1.111 -0.804,-2.15 -1.424,-3.097Zm-11.337,-7.098l2.264,1.417c-0.748,-0.111 -1.511,-0.16 -2.279,-0.142c0.074,-0.27 0.099,-0.558 0.064,-0.853l-0.049,-0.422Zm297.588,253.122l-299.536,187.547c-0.126,-1.46 -0.326,-2.828 -0.607,-4.088c-3.749,-16.779 -20.045,-28.834 -37.055,-27.872c0.109,-0.568 0.07,-1.182 -0.143,-1.793l-15.275,-43.855c21.775,1.229 38.605,-1.079 51.273,-4.59l19.353,3.731l-10.583,-6.565c10.965,-4.092 17.711,-8.838 21.102,-11.671c5.611,15.254 21.832,25.489 38.198,23.373c22.706,-2.936 68.575,-41.617 68.575,-41.617c-0,0 -60.09,-24.981 -82.795,-22.045c-16.511,2.134 -27.424,16.098 -25.867,32.082c-0.419,0.183 -0.801,0.452 -1.117,0.807c0,-0 -16.189,17.774 -60.078,19.569l7.89,-12.776l-14.414,12.92c-20.173,0.079 -45.647,-3.144 -77.355,-12.411l8.258,-18.06l-17.276,14.095c-4.01,-1.783 -9.443,-4.057 -15.999,-6.463l36.69,-34.83c12.349,12.32 31.836,14.407 44.771,4.359c17.363,-13.489 35.856,-70.681 35.856,-70.681c0,0 -62.536,5.754 -79.9,19.243c-12.513,9.72 -14.579,27.445 -5.479,41.265c-0.014,0.012 -0.027,0.025 -0.04,0.037l-39.152,37.168c-0.224,0.212 -0.41,0.45 -0.557,0.704c-12.773,-4.26 -28.595,-8.511 -45.9,-10.867l9.123,-20.07l-25.479,18.488c-21.223,-1.187 -43.824,1.041 -65.262,9.738l4.575,-21.283l-16.24,26.74c-3.954,2.111 -7.85,4.474 -11.671,7.108c-10.579,7.292 -20.571,14.775 -29.976,22.17l-0,-37.58l0.181,-0.84c0.148,-0.684 0.071,-1.381 -0.181,-2.018l-0,-0.969c17.051,0.887 31.125,-11.059 31.984,-27.734c1.15,-22.33 -31.984,-75.001 -31.984,-75.001l-0,-162.308c6.221,-0.956 12.15,-1.202 18.16,-0.497c11.509,1.349 23.276,6.229 38.047,16.139c4.489,3.011 9.379,6.72 14.671,10.971l-5.622,28.682l13.209,-22.462c10.127,8.437 21.538,18.377 34.228,28.924c-0.108,0.479 -0.117,0.978 -0.011,1.471l11.655,54.042c0.159,0.735 0.552,1.347 1.091,1.785c-16.698,3.727 -29.14,19.05 -28.288,35.583c1.149,22.33 36.911,70.106 36.911,70.106c-0,-0 30.395,-56.432 29.245,-78.762c-0.868,-16.865 -15.256,-28.893 -32.57,-27.698c0.682,-0.852 0.998,-1.953 0.767,-3.022l-9.975,-46.251c4.647,3.773 9.451,7.596 14.411,11.43l11.464,23.006l-1.591,-15.524c5.014,3.721 10.176,7.429 15.486,11.089c6.409,4.418 13.029,8.071 19.781,11.058l7.168,21.072l-0.262,-18.261c11.687,4.356 23.678,6.856 35.566,7.988l19.814,10.688l-6.292,-9.69l-2.568,-0.327c29.387,0.833 57.363,-5.908 77.647,-12.675c0.147,0.255 0.333,0.492 0.557,0.705l39.152,37.167c0.013,0.013 0.026,0.025 0.04,0.038c-9.1,13.82 -7.034,31.544 5.479,41.265c17.364,13.488 79.9,19.242 79.9,19.242c0,0 -18.493,-57.192 -35.856,-70.68c-12.935,-10.048 -32.422,-7.961 -44.771,4.358l-36.69,-34.83c8.073,-2.962 14.444,-5.725 18.552,-7.617l22.241,9.942l-13.356,-13.451c30.846,-8.804 55.694,-11.84 75.433,-11.71l-1.035,0.389l10.195,19.408l1.56,-19.397c40.355,2.81 55.384,19.311 55.384,19.311c0.317,0.354 0.698,0.624 1.117,0.806c-1.557,15.985 9.356,29.948 25.867,32.083c22.705,2.936 82.795,-22.045 82.795,-22.045c-0,-0 -45.869,-38.682 -68.574,-41.618c-16.366,-2.116 -32.587,8.12 -38.199,23.374c-2.971,-2.483 -8.519,-6.435 -17.225,-10.128l14.495,-10.502l-22.951,7.374c-13.069,-4.185 -31.194,-7.21 -55.464,-5.839l15.275,-43.855c0.213,-0.611 0.252,-1.225 0.143,-1.794c10.826,0.613 21.362,-4.047 28.559,-11.842l230.666,144.427l-47.846,29.957c-4.347,-2.735 -9.331,-6.053 -14.897,-9.531l-5.736,-16.35c-0.099,-0.281 -0.247,-0.529 -0.432,-0.739c5.246,-2.406 8.544,-8.107 7.566,-13.621c-1.397,-7.882 -16.253,-23.147 -16.253,-23.147c-0,-0 -8.334,21.52 -6.937,29.402c0.991,5.585 6.031,9.085 11.7,8.46c-0.071,0.377 -0.047,0.777 0.088,1.163l3.898,11.109c-3.707,-2.197 -7.632,-4.398 -11.761,-6.501c-12.451,-6.34 -25.888,-6.026 -37.54,-3.256c-7.441,1.769 -14.128,4.531 -19.296,7.078l-13.805,-10.03c-0.046,-0.033 -0.092,-0.064 -0.139,-0.094c2.082,-5.142 0.474,-10.852 -4.158,-13.556c-6.783,-3.961 -29.321,-3.003 -29.321,-3.003c-0,0 9.12,19.442 15.903,23.403c4.807,2.806 11.239,1.426 15.174,-2.994l11.864,8.621c-3.084,1.712 -5.175,3.086 -5.949,3.609c-35.483,15.804 -49.095,4.918 -49.095,4.918c-0.733,-0.633 -1.636,-0.947 -2.538,-0.955c-1.257,-4.379 -5.226,-7.476 -10.222,-7.447c-8.22,0.047 -28.526,11.814 -28.526,11.814c-0,-0 18.055,11.546 26.275,11.499c5.297,-0.03 10.116,-3.564 12.025,-8.38c2.815,0.598 8.334,1.53 16.635,1.896c3.779,0.167 7.875,0.138 12.607,-0.5l-3.376,15.735c-0.079,0.368 -0.064,0.734 0.03,1.073c-5.696,0.892 -10.467,5.751 -11.03,11.578c-0.79,8.182 9.078,27.207 9.078,27.207c0,0 13.554,-19.159 14.344,-27.342c0.537,-5.566 -2.941,-10.204 -8.075,-11.329c0.029,-0.086 0.054,-0.174 0.073,-0.265l3.751,-17.48c5.703,-1.183 12.302,-3.267 20.222,-6.804c-0.699,0.449 -1.079,0.707 -1.079,0.707c-0.209,0.148 1.507,-0.899 1.273,-0.794c-0.065,0.029 -0.129,0.058 -0.194,0.087c3.805,-2.446 17.073,-10.564 30.112,-13.664c3.867,-0.919 8.14,-1.257 12.544,-1.011l-8.351,12.495c-0.256,0.382 -0.38,0.813 -0.383,1.24c-4.954,-1.574 -10.881,0.524 -14.148,5.34c-4.815,7.097 -6.491,29.459 -6.491,29.459c-0,-0 20.792,-10.759 25.607,-17.856c3.475,-5.122 2.742,-11.548 -1.48,-15.046c0.251,-0.163 0.473,-0.378 0.65,-0.643l9.661,-14.453c5.347,0.829 10.732,2.5 15.68,5.02c11.253,5.731 20.994,12.186 28.959,17.318Zm-566.772,354.871l-65.32,40.898l-0,-121.982c23.331,6.493 48.448,10.333 48.448,10.333c0,-0 -24.883,-58.549 -43.799,-73.172c-1.496,-1.156 -3.051,-2.18 -4.649,-3.073l-0,-88.766c3.872,-3.092 7.848,-6.209 11.928,-9.328l24.057,4.268l-14.214,-11.641c4.156,-3.047 8.412,-6.081 12.766,-9.083c13.258,-9.138 27.462,-14.851 41.832,-18.081l31.581,36.328c0.616,0.708 1.43,1.157 2.276,1.324c-12.732,10.965 -13.354,30.641 -1.225,44.4c15.728,17.84 76.815,39.851 76.815,39.851c0,-0 -12.309,-61.243 -28.037,-79.083c-11.39,-12.92 -30.079,-16.144 -43.476,-8.112c0.059,-0.911 -0.249,-1.873 -0.936,-2.664l-29.176,-33.561c21.215,-3.476 42.484,-1.938 61.316,1.606l12.7,17.164l-2.162,-14.927c31.129,7.346 53.351,19.06 53.351,19.06c0.234,0.122 0.478,0.222 0.728,0.296c11.911,3.546 22.994,6.27 33.293,8.303l-2.391,-0.002l9.619,18.618l-1.072,-17.465c7.874,1.388 15.267,2.364 22.198,2.991l16.078,46.159c0.136,0.391 0.333,0.75 0.576,1.07c-15.462,4.053 -24.787,19.03 -21.169,35.224c1.63,7.3 7.425,17.335 14.488,27.538l-210.765,131.965c-0.504,-8.875 -1.089,-19.411 -0.569,-30.715c0.255,-5.548 1.464,-11.055 3.386,-16.113l17.34,-1.254c0.317,-0.023 0.614,-0.11 0.88,-0.247c0.953,5.399 6.178,9.213 12.347,8.724c8.55,-0.678 28.18,-13.435 28.18,-13.435c-0,0 -20.268,-9.596 -28.817,-8.918c-5.802,0.46 -10.555,4.575 -11.635,9.659c-0.373,-0.208 -0.809,-0.313 -1.267,-0.28l-14.99,1.084c1.962,-3.951 4.369,-7.498 7.079,-10.405c9.14,-9.803 22.755,-17.324 26.762,-19.423c-0.057,0.042 -0.114,0.084 -0.171,0.126c-0.207,0.152 1.551,-0.823 1.319,-0.714c0,0 -0.411,0.203 -1.148,0.588c6.99,-5.136 12.063,-9.843 15.911,-14.215l17.049,5.38c0.088,0.028 0.177,0.05 0.267,0.067c-1.56,5.019 0.752,10.335 5.857,12.619c7.503,3.358 30.858,1.046 30.858,1.046c-0,0 -11.661,-17.982 -19.165,-21.34c-5.343,-2.391 -11.925,-0.645 -15.516,3.866c-0.248,-0.249 -0.558,-0.443 -0.917,-0.557l-15.348,-4.842c2.893,-3.799 4.944,-7.346 6.666,-10.713c3.785,-7.396 5.703,-12.655 6.575,-15.397c5.13,0.721 10.584,-1.722 13.228,-6.311c4.104,-7.123 2.991,-28.526 2.991,-28.526c0,0 -20.265,11.836 -24.369,18.958c-2.495,4.33 -1.765,9.31 1.421,12.568c-0.44,0.788 -0.613,1.728 -0.424,2.678c-0,0 2.735,17.213 -28.543,40.247c-0.838,0.414 -3.065,1.553 -6.078,3.387l-1.63,-14.574c5.787,-1.236 10.167,-6.145 10.103,-11.711c-0.09,-7.854 -12.483,-25.392 -12.483,-25.392c0,-0 -11.973,19.118 -11.883,26.973c0.061,5.363 4.23,9.583 9.729,10.315c0.002,0.056 0.007,0.111 0.013,0.167l1.896,16.959c-4.769,3.233 -10.476,7.681 -15.692,13.275c-8.168,8.76 -15.082,20.285 -15.724,34.243c-0.213,4.628 -0.24,9.128 -0.163,13.437l-7.73,-8.88c-0.269,-0.309 -0.605,-0.527 -0.968,-0.651c3.346,-4.619 2.794,-10.731 -1.571,-14.352c-6.161,-5.111 -28.988,-8.504 -28.988,-8.504c0,-0 5.927,20.46 12.088,25.571c4.31,3.575 10.896,3.526 15.581,0.155c0.091,0.265 0.233,0.516 0.429,0.741l11.377,13.068c0.228,5.499 0.562,10.587 0.798,15.112Z"/></g></svg>